<?xml version="1.0" encoding="UTF-8"?>
<svg width="162px" height="25px" viewBox="0 0 162 25" version="1.1" xmlns="http://www.w3.org/2000/svg" xmlns:xlink="http://www.w3.org/1999/xlink">
    <!-- Generator: Sketch 45.2 (43514) - http://www.bohemiancoding.com/sketch -->
    <title>Group 3</title>
    <desc>Created with Sketch.</desc>
    <defs></defs>
    <g id="Page-1" stroke="none" stroke-width="1" fill="none" fill-rule="evenodd">
        <g id="Artboard" transform="translate(-614.000000, -29.000000)">
            <g id="Group-12" transform="translate(0.000000, -10.000000)">
                <g id="Group-3" transform="translate(615.000000, 40.000000)">
                    <g id="Group-8">
                        <g id="Group-2" stroke="#559B98" stroke-width="1.87142399">
                            <path d="M16.7731741,23.7826497 L16.7731741,8.35799423 C13.8978916,2.88556466 8.36546121,0.149349878 0.175882914,0.149349878 C-0.170884821,0.149349878 2.52583496,15.7457443 11.9273946,15.7457443" id="Path-28-Copy" stroke-linejoin="bevel"></path>
                            <path d="M16.7505083,15.1959737 C14.7732132,11.0256954 12.6064682,8.45664739 10.250273,7.4888296" id="Path-29-Copy"></path>
                            <g id="Group" transform="translate(16.773174, 1.984220)">
                                <path d="M8.88246248,13.9107027 C12.7682926,13.9107027 15.9183803,10.8104572 15.9183803,6.98611063 C15.9183803,3.16176403 12.4150536,0 8.52922345,0 C4.01418882,3.33760748e-12 0,3.49607374 0,7.32042033" id="Oval-13-Copy" stroke-linecap="round"></path>
                                <path d="M8.77584915,5.08173985 C6.3146306,5.12402083 4.35424531,7.12193895 4.39720604,9.54421487 C4.44016677,11.9664908 6.47020517,13.8958579 8.93142371,13.8535769" id="Oval-13-Copy-2"></path>
                            </g>
                        </g>
                        <path d="M44.4148832,9.37383687 C44.5926521,9.16381255 44.76153,8.98004403 44.921522,8.8225258 C45.739259,8.01743258 46.6947525,7.38299365 47.7880313,6.91918995 C48.88131,6.45538625 50.050123,6.22348788 51.2945054,6.22348788 C52.5388877,6.22348788 53.7077007,6.45538625 54.8009794,6.91918995 C55.8942582,7.38299365 56.8497517,8.01743258 57.6674887,8.8225258 C58.4852256,9.62761901 59.1318503,10.5705265 59.6073822,11.6512767 C60.082914,12.7320268 60.3206763,13.88058 60.3206763,15.0969709 L60.3206763,23.9704539 L58.1874601,23.9704539 L58.1874601,15.0969709 C58.1874601,13.224254 57.5163926,11.6228427 56.1742374,10.2926887 C55.5431578,9.68886875 54.809872,9.20757024 53.9743582,8.8487787 C53.1388443,8.48998716 52.245569,8.31059408 51.2945054,8.31059408 C50.3434417,8.31059408 49.4501664,8.48998716 48.6146525,8.8487787 C47.7791387,9.20757024 47.0502971,9.68886875 46.4281059,10.2926887 C45.0859507,11.6228427 44.4148832,13.224254 44.4148832,15.0969709 L44.4148832,23.9704539 L42.281667,23.9704539 L42.281667,2.56120718 L44.4148832,2.56120718 L44.4148832,9.37383687 Z M78.1352415,21.3714159 C77.2908392,22.2115132 76.3131249,22.854703 75.2020693,23.3010047 C74.0999021,23.7473064 72.9533098,23.9704539 71.7622582,23.9704539 C70.5178759,23.9704539 69.3490628,23.7385555 68.2557841,23.2747518 C67.1625053,22.8109481 66.2070118,22.1765092 65.3892748,21.3714159 C64.5715379,20.5750737 63.9271353,19.6365417 63.4560477,18.5557915 C62.9849601,17.4750414 62.7494198,16.3221127 62.7494198,15.0969709 C62.7494198,13.88058 62.9849601,12.7320268 63.4560477,11.6512767 C63.9271353,10.5705265 64.5715379,9.62761901 65.3892748,8.8225258 C66.2070118,8.01743258 67.1625053,7.38299365 68.2557841,6.91918995 C69.3490628,6.45538625 70.5178759,6.22348788 71.7622582,6.22348788 C73.0066405,6.22348788 74.1754535,6.45538625 75.2687323,6.91918995 C76.362011,7.38299365 77.3175046,8.01743258 78.1352415,8.8225258 C78.9529785,9.62761901 79.5996032,10.5705265 80.075135,11.6512767 C80.5506668,12.7320268 80.7884291,13.88058 80.7884291,15.0969709 L80.7884291,16.1470872 L64.9626316,16.1470872 C65.1937312,17.6085064 65.8381338,18.8598825 66.8958588,19.9012531 C68.238014,21.2226561 69.8601309,21.8833476 71.7622582,21.8833476 C72.6688796,21.8833476 73.5488225,21.7127055 74.4021132,21.3714159 C75.2198502,21.0388774 75.9664684,20.5488281 76.6419902,19.9012531 L78.1352415,21.3714159 Z M66.8958588,10.2926887 C65.8381338,11.3428102 65.1937312,12.5941864 64.9626316,14.0468545 L78.5618848,14.0468545 C78.3396736,12.5941864 77.6997152,11.3428102 76.6419902,10.2926887 C76.0109106,9.68886875 75.2776249,9.20757024 74.442111,8.8487787 C73.6065972,8.48998716 72.7133218,8.31059408 71.7622582,8.31059408 C70.8111945,8.31059408 69.9179192,8.48998716 69.0824054,8.8487787 C68.2468915,9.20757024 67.5180499,9.68886875 66.8958588,10.2926887 Z M97.109743,10.2926887 C96.4786634,9.68886875 95.7453777,9.20757024 94.9098638,8.8487787 C94.07435,8.48998716 93.1810746,8.31059408 92.230011,8.31059408 C91.2789474,8.31059408 90.385672,8.48998716 89.5501582,8.8487787 C88.7146443,9.20757024 87.9858028,9.68886875 87.3636116,10.2926887 C86.0214564,11.6228427 85.3503888,13.224254 85.3503888,15.0969709 L85.3503888,23.9704539 L83.2171727,23.9704539 L83.2171727,15.0969709 C83.2171727,13.88058 83.4527129,12.7320268 83.9238005,11.6512767 C84.3948881,10.5705265 85.0392907,9.62761901 85.8570277,8.8225258 C86.6747646,8.01743258 87.6302582,7.38299365 88.7235369,6.91918995 C89.8168157,6.45538625 90.9856287,6.22348788 92.230011,6.22348788 C93.4743933,6.22348788 94.6432063,6.45538625 95.7364851,6.91918995 C96.8297639,7.38299365 97.7852574,8.01743258 98.6029943,8.8225258 M103.657068,2.37743682 L103.657068,15.0969709 C103.657068,16.9696877 104.328135,18.5710991 105.670291,19.9012531 C107.012446,21.2226561 108.634563,21.8833476 110.53669,21.8833476 C112.438817,21.8833476 114.065378,21.2226561 115.416422,19.9012531 C116.758577,18.5710991 117.429645,16.9696877 117.429645,15.0969709 C117.429645,13.224254 116.758577,11.6228427 115.416422,10.2926887 C114.785342,9.68886875 114.052057,9.20757024 113.216543,8.8487787 C112.381029,8.48998716 111.487754,8.31059408 110.53669,8.31059408 C109.612292,8.31059408 108.732349,8.48123628 107.896835,8.8225258 C107.061321,9.17256632 106.314703,9.66261571 105.656958,10.2926887 L104.163707,8.8225258 C105.016997,7.98242853 105.994712,7.33923871 107.096879,6.89293704 C108.199046,6.44663537 109.345638,6.22348788 110.53669,6.22348788 C111.781072,6.22348788 112.949885,6.45538625 114.043164,6.91918995 C115.136443,7.38299365 116.091936,8.01743258 116.909673,8.8225258 C117.72741,9.62761901 118.374035,10.5705265 118.849567,11.6512767 C119.325099,12.7320268 119.562861,13.88058 119.562861,15.0969709 C119.562861,16.3221127 119.325099,17.4750414 118.849567,18.5557915 C118.374035,19.6365417 117.72741,20.5750737 116.909673,21.3714159 C116.091936,22.1765092 115.136443,22.8109481 114.043164,23.2747518 C112.949885,23.7385555 111.781072,23.9704539 110.53669,23.9704539 C109.292308,23.9704539 108.123495,23.7385555 107.030216,23.2747518 C105.936937,22.8109481 104.981444,22.1765092 104.163707,21.3714159 C103.34597,20.5750737 102.701567,19.6365417 102.23048,18.5557915 C101.759392,17.4750414 101.523852,16.3221127 101.523852,15.0969709 L101.523852,2.37743682 L103.657068,2.37743682 Z M158.852654,15.0969709 C158.852654,13.224254 158.181586,11.6228427 156.839431,10.2926887 C156.208351,9.68886875 155.475066,9.20757024 154.639552,8.8487787 C153.804038,8.48998716 152.910762,8.31059408 151.959699,8.31059408 C151.008635,8.31059408 150.11536,8.48998716 149.279846,8.8487787 C148.444332,9.20757024 147.715491,9.68886875 147.093299,10.2926887 C145.751144,11.6228427 145.080077,13.224254 145.080077,15.0969709 L145.080077,23.9704539 L142.94686,23.9704539 L142.94686,15.0969709 C142.94686,13.88058 143.182401,12.7320268 143.653488,11.6512767 C144.124576,10.5705265 144.768979,9.62761901 145.586716,8.8225258 C146.404452,8.01743258 147.359946,7.38299365 148.453225,6.91918995 C149.546504,6.45538625 150.715317,6.22348788 151.959699,6.22348788 C153.204081,6.22348788 154.372894,6.45538625 155.466173,6.91918995 C156.559452,7.38299365 157.514945,8.01743258 158.332682,8.8225258 C159.150419,9.62761901 159.797044,10.5705265 160.272576,11.6512767 C160.748107,12.7320268 160.98587,13.88058 160.98587,15.0969709 L160.98587,23.9704539 L158.852654,23.9704539 L158.852654,15.0969709 Z" id="herban" fill="#559B98"></path>
                        <g id="Group-4" transform="translate(122.100671, 6.914894)" stroke="#559B98" stroke-width="2.10330006">
                            <g id="Group-5" transform="translate(8.887416, 9.042553) scale(-1, 1) translate(-8.887416, -9.042553) translate(0.243121, 0.000000)">
                                <g id="Group-6" transform="translate(0.160113, 0.290590)">
                                    <g id="Group-7" transform="translate(0.500220, 0.038478)">
                                        <ellipse id="Oval-Copy" cx="7.96377698" cy="7.84678625" rx="7.96377698" ry="7.84678625"></ellipse>
                                        <path d="M8.49875725e-13,7.44592446 C1.39444012e-13,11.4598121 -1.04360964e-13,14.5515967 1.18571819e-13,16.7212781" id="Path-31-Copy"></path>
                                    </g>
                                </g>
                            </g>
                        </g>
                    </g>
                </g>
            </g>
        </g>
    </g>
</svg>